<svg id="Capa_1" enable-background="new 0 0 512 512" height="512" viewBox="0 0 512 512" width="512" xmlns="http://www.w3.org/2000/svg" xmlns:xlink="http://www.w3.org/1999/xlink"><linearGradient id="SVGID_1_" gradientUnits="userSpaceOnUse" x1="256" x2="256" y1="512" y2="0"><stop offset="0" stop-color="#fd5900"/><stop offset="1" stop-color="#ffde00"/></linearGradient><g><g><path d="m508.961 155.948c-2.835-3.746-7.263-5.948-11.961-5.948h-61.838c.547-4.927.838-9.93.838-15 0-74.439-60.561-135-135-135s-135 60.561-135 135c0 5.07.291 10.073.838 15h-47.828l-19.589-137.122c-1.056-7.389-7.385-12.878-14.85-12.878h-69.571c-8.284 0-15 6.716-15 15s6.716 15 15 15h56.562l19.588 137.118c0 .002.001.004.001.006l22.639 160.482c2.458 17.197 10.82 32.979 23.599 44.685-10.003 8.26-16.389 20.753-16.389 34.709 0 20.723 14.084 38.209 33.181 43.414-2.045 5.137-3.181 10.73-3.181 16.586 0 24.813 20.187 45 45 45s45-20.187 45-45c0-5.258-.915-10.305-2.58-15.01h125.16c-1.665 4.705-2.58 9.751-2.58 15.01 0 24.813 20.187 45 45 45s45-20.187 45-45-20.187-45-45-45h-240c-8.271 0-15-6.729-15-15s6.729-15 15-15h224.742c33.897 0 63.964-22.368 73.127-54.441l47.566-168.483c1.277-4.522.362-9.381-2.474-13.128zm-102.961 296.052c8.271 0 15 6.729 15 15s-6.729 15-15 15-15-6.729-15-15 6.729-15 15-15zm-210 0c8.271 0 15 6.729 15 15s-6.729 15-15 15-15-6.729-15-15 6.729-15 15-15zm119-389.42v-17.58c0-8.216-6.608-14.881-14.799-14.99.267-.002.532-.01.799-.01 57.897 0 105 47.103 105 105s-47.103 105-105 105c-.267 0-.532-.008-.799-.01 8.191-.109 14.799-6.774 14.799-14.99v-17.58c17.459-6.192 30-22.865 30-42.42 0-24.813-20.187-45-45-45-8.271 0-15-6.729-15-15s6.729-15 15-15 15 6.729 15 15c0 8.284 6.716 15 15 15s15-6.716 15-15c0-19.555-12.541-36.228-30-42.42zm-15.336-32.563c-8.127.18-14.664 6.812-14.664 14.983v17.58c-17.459 6.192-30 22.865-30 42.42 0 24.813 20.187 45 45 45 8.271 0 15 6.729 15 15s-6.729 15-15 15-15-6.729-15-15c0-8.284-6.716-15-15-15s-15 6.716-15 15c0 19.555 12.541 36.228 30 42.42v17.58c0 8.171 6.537 14.803 14.664 14.983-57.283-.719-103.664-47.533-103.664-104.983s46.381-104.264 103.664-104.983zm135.347 299.346c-5.404 18.911-24.021 32.637-44.269 32.637-8.566 0-190.353 0-202.704 0-22.25 0-41.401-16.61-44.545-38.61l-20.228-143.39h50.457c18.574 52.38 68.611 90 127.278 90s108.704-37.62 127.278-90h48.9z" fill="url(#SVGID_1_)"/></g></g></svg>